<?xml version="1.0" encoding="UTF-8"?>
<svg id="Calque_2" data-name="Calque 2" xmlns="http://www.w3.org/2000/svg" viewBox="0 0 210 169.5">
  <style>
    .logo {
      overflow: visible;
    }

    .logo path {
      fill: currentColor;
      transition: transform 0.25s ease, filter 0.25s ease;
    }

    /* Subtle idle glitch on load */
    .logo path {
      animation: glitch-in 0.9s steps(2, end) 1;
    }

    /* Hover glitch */
    .logo:hover path {
      animation: glitch-hover 0.6s steps(2, end) infinite;
      filter: drop-shadow(2px 0 red) drop-shadow(-2px 0 cyan);
    }

    /* Stagger slight offsets for organic glitch */
    .logo #union path:nth-child(odd) {
      animation-delay: 0.05s;
    }

    .logo #mob path:nth-child(even) {
      animation-delay: 0.1s;
    }

    @keyframes glitch-in {
      0%   { transform: translate(0, 0); }
      20%  { transform: translate(-1px, 1px); }
      40%  { transform: translate(1px, -1px); }
      60%  { transform: translate(-1px, 0); }
      80%  { transform: translate(1px, 1px); }
      100% { transform: translate(0, 0); }
    }

    @keyframes glitch-hover {
      0%   { transform: translate(0, 0); }
      25%  { transform: translate(-2px, 0); }
      50%  { transform: translate(2px, -1px); }
      75%  { transform: translate(-1px, 1px); }
      100% { transform: translate(0, 0); }
    }
  </style>
  <g id="Logo">
    <g id="Union">
      <path id="U" class="cls-1" d="M139.12,3.09c.2.29.3.52.3.66,0,.27-.1.5-.3.7s-.42.29-.67.29c-.35,0-.59-.1-.71-.29-.02,0-.07-.03-.15-.09s-.19-.15-.34-.28c-.15-.12-.31-.23-.49-.33-.75-.44-1.96-.66-3.63-.66-1.1,0-2.29.17-3.59.52-1.5.42-3.03,1.01-4.6,1.77-1.57.76-3.53,2.01-5.87,3.74-2.34,1.73-4.68,3.8-7,6.19-2.32,2.4-4.91,5.58-7.76,9.54s-5.65,8.43-8.4,13.39c-2.39,4.4-4.58,8.98-6.57,13.74-1.98,4.77-3.68,9.95-5.11,15.56-1.42,5.61-2.13,10.69-2.13,15.23,0,2.51.21,4.83.64,6.96.42,2.14,1.12,4.16,2.08,6.06.96,1.9,2.18,3.55,3.65,4.95,1.47,1.4,3.32,2.57,5.54,3.52,2.22.95,4.75,1.58,7.59,1.9.5.05,1.23.07,2.21.07,2.84,0,5.84-.36,9-1.07,3.15-.71,5.9-1.6,8.25-2.65,1.52-.71,2.99-1.54,4.41-2.49s2.6-1.85,3.53-2.71c.94-.86,1.76-1.66,2.49-2.41.72-.75,1.25-1.36,1.57-1.82l.49-.66c.47-.76,1.11-1.14,1.91-1.14.45,0,.84.12,1.16.37.4.25.6.68.6,1.29,0,.96-.49,1.84-1.46,2.65-1.25.98-2.78,2.09-4.6,3.32-1.82,1.23-3.32,2.21-4.49,2.95l-1.8,1.07c-6.53,3.61-13.73,5.42-21.58,5.42h-.86c-3.87-.07-7.33-.57-10.4-1.47-3.07-.91-5.63-2.14-7.69-3.68-2.06-1.55-3.77-3.41-5.12-5.6-1.36-2.19-2.34-4.54-2.94-7.07-.6-2.53-.9-5.29-.9-8.29,0-5.87,1.2-12.66,3.59-20.37-10.57,17.63-19.18,27.68-25.81,30.14-1.17.44-2.27.66-3.29.66-.85,0-1.71-.15-2.58-.46-.87-.31-1.55-.73-2.02-1.27-1.12-1.33-1.68-3.22-1.68-5.67,0-1.35.26-3.25.79-5.71.67-2.75,2.39-7.1,5.14-13.04,2.76-5.94,5.38-11.14,7.87-15.58,2.19-3.93,4.13-7.64,5.82-11.14,1.68-3.5,2.95-6.32,3.8-8.47.85-2.15,1.54-4.06,2.08-5.75.54-1.68.87-2.82.99-3.43.12-.6.19-.96.19-1.09,0-.05.01-.12.04-.2.02-.09.04-.14.04-.17.35-2.19.52-3.94.52-5.27,0-8.42-4.51-12.81-13.54-13.15h-.6c-3.64,0-7.7.99-12.18,2.97-4.48,1.98-9.07,4.89-13.78,8.75-4.71,3.86-8.94,8.3-12.68,13.34-2.87,3.86-5.24,7.75-7.11,11.7-1.87,3.94-3.25,7.31-4.15,10.11-1.02,3.41-1.53,6.43-1.53,9.06,0,2.82.51,5.04,1.53,6.65,1.02,1.61,2.23,2.61,3.63,3,1.12.25,2.11.37,2.96.37,4.02,0,8.2-1.9,12.57-5.71,2.74-2.31,5.2-5.09,7.37-8.34,2.17-3.25,3.98-6.61,5.42-10.08.62-1.52,1.15-3.16,1.57-4.9.42-1.74.7-3.12.82-4.13l.15-1.47c0-1.74.74-2.62,2.21-2.62,1.07.07,1.61.75,1.61,2.03,0,.27-.05.7-.15,1.29-.47,1.87-1.19,3.95-2.15,6.24-.96,2.3-1.79,4.12-2.49,5.47l-1.08,2.03c-3.32,6.63-7.31,11.94-11.97,15.91-2.52,2.14-4.85,3.7-7,4.68-2.15.98-4.74,1.56-7.78,1.73h-.79c-.97,0-1.94-.1-2.9-.31-.96-.21-1.98-.62-3.07-1.23-1.09-.61-2.04-1.41-2.86-2.38s-1.51-2.28-2.06-3.92c-.55-1.64-.82-3.54-.82-5.67,0-.34.02-.83.07-1.47.05-.64.26-1.96.62-3.98.36-2.01.84-4.03,1.42-6.06.59-2.03,1.5-4.49,2.75-7.4,1.25-2.91,2.7-5.71,4.36-8.4,1.66-2.69,3.83-5.56,6.51-8.6,2.68-3.04,5.65-5.86,8.92-8.44,5.26-4.15,10.51-7.26,15.73-9.34,5.22-2.08,10.09-3.11,14.61-3.11.17,0,.46.01.86.04.4.02.69.04.86.04,12.29.66,18.44,6.59,18.44,17.79,0,4.77-1.02,10.06-3.05,15.88-2.03,5.82-4.57,11.58-7.61,17.28-5.79,10.9-9.96,19.21-12.53,24.92-2.57,5.71-3.85,9.72-3.85,12.03,0,1.6.56,2.51,1.68,2.73.15.05.36.07.64.07,1.65,0,3.81-1.12,6.49-3.35,2.68-2.23,5.16-4.74,7.43-7.52,3.74-4.59,7.44-9.98,11.11-16.17s6.88-12.02,9.65-17.5c3.07-5.87,4.63-8.83,4.68-8.88,6.58-11.79,14.4-21.05,23.46-27.78.25-.22.61-.52,1.08-.9.47-.38,1.44-1.05,2.9-2.01,1.46-.96,2.92-1.81,4.4-2.54,1.47-.74,3.24-1.41,5.29-2.01,2.06-.6,4.01-.9,5.85-.9,2.97,0,5.09.63,6.36,1.88Z"/>
      <path id="Nleft" class="cls-1" d="M114.95,35.05s3.93.24,3.93,5.62v37.26l-14.89-39.03c.74-3.69,3.78-3.85,3.78-3.85v-.8h-13.41v.8s3.93.24,3.93,5.62v43.37c0,5.46-3.93,5.62-3.93,5.62v.8h13.41v-.8s-3.93-.24-3.93-5.62v-40.96l15.03,39.51v1.45c0,5.46-3.93,5.62-3.93,5.62v.8h13.33v-.8s-3.92-.24-3.92-5.62v-43.37c0-5.46,3.92-5.62,3.92-5.62v-.8h-13.33v.8Z"/>
      <path id="I" class="cls-1" d="M139.42,82.7v-40.49c0-6.08,4.31-6.96,4.31-6.96v-.8h-14.45v.8s4.23.88,4.23,6.96v40.49c0,6.16-4.23,6.96-4.23,6.96v.8h14.45v-.8s-4.31-.8-4.31-6.96Z"/>
      <path id="Otop" class="cls-1" d="M178.09,62.67s.97-28.42-18.93-28.42-18.85,28.42-18.85,28.42c0,0-1.37,27.79,18.85,27.79s18.93-27.79,18.93-27.79ZM159.16,89.04c-13.77,0-12.64-26.69-12.64-26.69,0,0-.89-26.69,12.64-26.69,12.72,0,12.72,26.69,12.72,26.69,0,0,.64,26.69-12.72,26.69Z"/>
      <path id="Nright" class="cls-1" d="M210,35.25v-.8h-13.78v.8s4.06.24,4.06,5.6v37.13l-15.39-38.89c.77-3.68,3.9-3.84,3.9-3.84v-.8h-13.86v.8s4.06.24,4.06,5.6v43.21c0,5.44-4.06,5.6-4.06,5.6v.8h13.86v-.8s-4.06-.24-4.06-5.6v-40.81l15.54,39.37v1.44c0,5.44-4.06,5.6-4.06,5.6v.8h13.78v-.8s-4.06-.24-4.06-5.6v-43.21c0-5.44,4.06-5.6,4.06-5.6Z"/>
    </g>
    <g id="Mob">
      <path id="M" class="cls-1" d="M160.23,76.58c.17.26.26.47.26.62,0,.22-.09.41-.26.59s-.38.26-.62.26c-.28,0-.48-.09-.59-.26,0-.13-.29-.33-.88-.59-.69-.41-1.71-.62-3.06-.62-1,0-2.06.15-3.19.46-1.3.37-2.64.89-4,1.56-1.37.67-3.06,1.77-5.09,3.3-2.03,1.53-4.04,3.35-6.05,5.47-2.01,2.12-4.25,4.93-6.73,8.43-2.48,3.5-4.92,7.45-7.3,11.83-3.32,6.16-6.15,12.79-8.49,19.87s-3.51,13.56-3.51,19.41c0,2.78.3,5.3.91,7.57.61,2.27,1.55,4.33,2.83,6.2,1.28,1.87,3.03,3.38,5.25,4.56,2.22,1.17,4.86,1.93,7.92,2.28.54.04,1.34.07,2.41.07,4.14,0,8.23-.76,12.27-2.28.61-.19,1.34-.51,2.21-.94,1.34-.63,2.64-1.37,3.87-2.21s2.26-1.65,3.06-2.41c.8-.76,1.51-1.47,2.13-2.13.62-.66,1.07-1.19,1.35-1.58l.42-.59c.48-.67,1.06-1.01,1.76-1.01.33,0,.63.11.91.33.37.22.55.6.55,1.14,0,.8-.44,1.56-1.33,2.28-1.06.89-2.37,1.87-3.94,2.95-1.56,1.07-2.85,1.94-3.87,2.59l-1.53,1.01c-5.7,3.19-11.99,4.78-18.87,4.78h-.72c-3.36-.07-6.37-.5-9.03-1.3-2.66-.8-4.88-1.88-6.65-3.24-1.78-1.36-3.25-3-4.42-4.93-1.17-1.93-2.01-4.01-2.52-6.23-.51-2.22-.76-4.66-.76-7.31,0-5.79,1.15-12.18,3.45-19.17,2.3-6.99,5.3-13.83,9.01-20.54,5.83-10.65,12.63-18.81,20.4-24.47.26-.28.66-.62,1.2-1.01-7.68,4.19-14.9,10.44-21.67,18.75l-2.21,2.8s-.35.54-1.06,1.55c-.7,1.01-1.64,2.38-2.81,4.1-1.17,1.72-2.43,3.62-3.77,5.68-1.35,2.06-2.8,4.37-4.38,6.93-1.57,2.56-2.98,4.96-4.21,7.19-.69,1.24-1.74,3.12-3.14,5.65-1.4,2.53-2.48,4.46-3.24,5.79-.76,1.33-1.65,2.87-2.67,4.62-1.02,1.75-1.9,3.16-2.65,4.25-.75,1.08-1.43,1.94-2.03,2.57-.69.8-1.35,1.2-1.95,1.2-.2,0-.46-.07-.78-.2-.54-.24-.81-.74-.81-1.5,0-.63.29-1.27.88-1.92l.91-1.2c.89-1.11,1.58-1.98,2.08-2.62.5-.64,1.31-1.76,2.42-3.37,1.12-1.61,2.07-3.1,2.85-4.48.78-1.38,1.74-3.21,2.86-5.5,1.13-2.29,2.13-4.59,3.01-6.92.88-2.32,1.81-5.07,2.8-8.25s1.87-6.5,2.65-9.98c.72-3.1,1.07-6.02,1.07-8.75,0-3.65-.65-7-1.95-10.06-.15.76-.35,1.54-.59,2.34-.13.43-.31,1.03-.55,1.79-.24.76-.78,2.32-1.61,4.69-.84,2.36-1.72,4.73-2.65,7.09-.93,2.36-2.14,5.2-3.61,8.51-1.48,3.31-2.99,6.45-4.55,9.42-1.87,3.56-3.77,6.87-5.71,9.93s-4.18,6.11-6.7,9.15-5.09,5.62-7.69,7.75c-2.6,2.13-5.48,3.85-8.64,5.16-3.16,1.31-6.35,1.97-9.58,1.97h-.68c-1.17-.04-2.23-.21-3.19-.49-.95-.28-1.72-.63-2.29-1.04-.57-.41-1.07-.87-1.5-1.38-.42-.51-.73-1.01-.93-1.5-.2-.49-.34-.94-.44-1.35-.1-.41-.15-.75-.15-1.01l-.03-.36c0-.17.13-.36.39-.57.26-.21.42-.31.49-.31.22,0,.4.08.55.23s.23.35.23.59c0,.15.02.36.05.63.03.27.17.7.42,1.29s.59,1.11,1.03,1.56c.43.46,1.11.86,2.02,1.22.91.36,1.98.54,3.22.54h.55c2.08-.07,4.15-.51,6.2-1.33,2.05-.82,3.96-1.88,5.73-3.17,1.77-1.29,3.55-2.92,5.35-4.9,1.8-1.97,3.44-3.98,4.93-6.02s3.03-4.39,4.62-7.05c1.59-2.66,3-5.13,4.23-7.42s2.53-4.85,3.92-7.7c5.18-10.52,9.93-19.63,14.25-27.31l1.79-3.16c-.56-.95-1.19-1.85-1.89-2.69-.69-.83-1.33-1.5-1.92-2-.59-.5-1.14-.93-1.66-1.29-.52-.36-.93-.61-1.24-.77l-.42-.2c-2.36-1.28-5.74-1.96-10.12-2.05h-.88c-4.03,0-8.31.96-12.82,2.86-4.51,1.91-8.75,4.46-12.7,7.65s-7.41,6.75-10.36,10.68c-2.39,3.1-4.21,5.75-5.47,7.94-4.4,7.66-6.6,13.97-6.6,18.94,0,1.15.12,2.21.36,3.17.24.97.54,1.76.89,2.39.36.63.76,1.18,1.22,1.64s.88.81,1.28,1.04c.4.23.79.39,1.16.47,1.04.22,1.95.33,2.73.33,3.45,0,7.07-1.62,10.87-4.85,2.41-2.02,4.58-4.45,6.52-7.29,1.94-2.84,3.54-5.77,4.8-8.79.56-1.32,1.04-2.76,1.43-4.3.39-1.54.64-2.76.75-3.65l.16-1.33c0-1.54.64-2.31,1.92-2.31.93.15,1.4.75,1.4,1.79,0,.35-.07.75-.2,1.2-.43,1.65-1.07,3.48-1.92,5.5s-1.59,3.62-2.24,4.82l-.94,1.76c-2.95,5.84-6.49,10.48-10.61,13.93-4.36,3.65-8.64,5.47-12.85,5.47h-.42c-.15,0-.4-.02-.75-.05-.35-.03-.56-.05-.65-.05-3.69-.33-6.19-1.88-7.52-4.65-.93-1.84-1.4-4.11-1.4-6.8v-.52c0-.3.02-.72.05-1.25.03-.53.19-1.65.47-3.35.28-1.7.68-3.43,1.19-5.18.51-1.75,1.31-3.88,2.41-6.4,1.1-2.52,2.38-4.96,3.86-7.32,1.47-2.36,3.42-4.93,5.84-7.68,2.42-2.76,5.12-5.34,8.12-7.75,4.45-3.56,9.15-6.24,14.12-8.04,4.97-1.8,9.9-2.7,14.8-2.7h1.04c5.01.13,9.24,1.22,12.69,3.25l.72.49c.63.41,1.14.77,1.55,1.06.4.29.98.78,1.74,1.47.76.68,1.4,1.36,1.92,2.02s1.11,1.53,1.76,2.6c.65,1.07,1.17,2.19,1.56,3.34.39,1.15.72,2.52.99,4.12.27,1.6.41,3.28.41,5.06,0,7.09-1.97,15.41-5.92,24.93-.04.04-.07.11-.07.2,0,.3.04.46.13.46s.17-.04.26-.11c.09-.08.15-.15.2-.21l.07-.13c5.23-8.7,10.61-16.48,16.14-23.34,2.32-2.86,4.7-5.48,7.12-7.86,2.43-2.38,4.75-4.38,6.96-6.02,2.21-1.64,4.21-3,6-4.08,1.79-1.08,3.55-2.03,5.29-2.83,2.23-1.02,4.57-1.82,7.01-2.39,2.44-.57,4.55-.86,6.33-.86,2.58,0,4.42.55,5.53,1.66Z"/>
      <path id="Obottom" class="cls-1" d="M150.49,78.74c-22.44,0-21.14,32.55-21.14,32.55,0,0-1.45,31.83,21.14,31.83s21.07-31.83,21.07-31.83c0,0,1.07-32.55-21.07-32.55ZM150.49,141.5c-15.42,0-14.2-30.57-14.2-30.57,0,0-.99-30.48,14.2-30.48,14.12,0,14.12,30.48,14.12,30.48,0,0,.69,30.57-14.12,30.57Z"/>
      <path id="B" class="cls-1" d="M194.34,110.15c7.97-1.09,10.34-8.06,10.04-15.48v-.09c-.23-6.7-3.83-15.84-16.32-15.84h-18.01v.91s4.29.27,4.75,5.43v50.7c-.46,5.25-4.75,5.43-4.75,5.43v.91h21.68c12.18,0,14.71-10.5,14.71-16.75v-.09c0-9.42-4.44-13.13-12.11-15.12ZM181.46,80.28h5.67s10.88-.45,10.88,12.95v.09s.61,16.39-9.81,16.39h-6.74v-29.42ZM199.62,123.91c0,3.44,0,16.57-9.81,16.57h-8.35v-29.15h8.51s9.65.18,9.65,12.4v.18Z"/>
    </g>
  </g>
</svg>